<?xml version="1.0" encoding="utf-8"?>
<!-- Generator: Adobe Illustrator 25.4.1, SVG Export Plug-In . SVG Version: 6.00 Build 0)  -->
<svg version="1.1" id="Layer_1" xmlns="http://www.w3.org/2000/svg" xmlns:xlink="http://www.w3.org/1999/xlink" x="0px" y="0px"
	 viewBox="0 0 50 50" style="enable-background:new 0 0 50 50;" xml:space="preserve">
<style type="text/css">
	.st0{fill:none;}
	.st1{fill:#BA9BC9;}
</style>
<g>
	<defs>
		<rect id="SVGID_1_" x="-68.1" y="63.2" width="184.8" height="50.6"/>
	</defs>
	<clipPath id="SVGID_00000047765159314690742230000004195183863339499183_">
		<use xlink:href="#SVGID_1_"  style="overflow:visible;"/>
	</clipPath>
</g>
<circle class="st0" cx="21.2" cy="15" r="7.8"/>
<g>
	<g>
		<path class="st1" d="M28.7,20.1c3.6-0.3,6.1-3.2,6.8-6.6c0.6-3.3,0.3-7.6-2.4-10c-2.7-2.4-6.4-2.6-9.6-1.2
			C20.3,3.8,18,6.7,16.9,10c-1.2,3.3-1.3,7.3,0.5,10.4c0.9,1.6,2.3,2.9,3.6,4.2c1.4,1.3,2.7,2.6,4.2,3.9c1.5,1.2,3,2.3,4.6,3.3
			c1.5,0.9,2.8,1.8,3.1,3.6c0.6,3.6-2.8,6.6-5.7,8.2c-3.4,1.9-7.4,1.3-9.9-1.8c-1.1-1.4-1.7-3.1-2-4.8c-0.3-1.7,0.3-3,1.4-4.4
			c1.2-1.5-0.9-3.6-2.1-2.1c-2.1,2.5-2.8,5-2,8.1c0.9,3.1,2.4,5.9,5.3,7.6c2.9,1.8,6.3,1.9,9.3,0.6c3-1.3,6.1-3.6,7.6-6.6
			c1.5-3,1.4-6.8-1.1-9.2c-1.3-1.2-2.9-2-4.3-2.9c-1.6-1.1-3-2.3-4.4-3.6c-2.6-2.4-5.9-4.9-6.1-8.7c-0.2-3.4,1-6.9,3.6-9.1
			c2.6-2.4,7.9-3.1,9.5,0.8c1.3,3,0.9,9.5-3.4,9.9C26.8,17.3,26.8,20.3,28.7,20.1L28.7,20.1z"/>
	</g>
</g>
</svg>
